<svg xmlns="http://www.w3.org/2000/svg" xmlns:xlink="http://www.w3.org/1999/xlink" width="500" zoomAndPan="magnify" viewBox="0 0 375 374.999991" height="500" preserveAspectRatio="xMidYMid meet" version="1.0"><defs><clipPath id="c333e30469"><path d="M 0 26.792969 L 374.988281 26.792969 L 374.988281 348.207031 L 0 348.207031 Z M 0 26.792969 " clip-rule="nonzero"/></clipPath></defs><rect x="-37.5" width="450" fill="#ffffff" y="-37.499999" height="449.999989" fill-opacity="1"/><rect x="-37.5" width="450" fill="#167544" y="-37.499999" height="449.999989" fill-opacity="1"/><g clip-path="url(#c333e30469)"><path fill="#ffffff" d="M 342.4375 112.878906 C 336.503906 115.714844 331.359375 118.25 331.007812 118.511719 C 330.65625 118.769531 329.285156 119.488281 327.964844 120.105469 C 326.644531 120.722656 323.382812 122.371094 320.722656 123.765625 C 318.058594 125.164062 314.832031 126.875 313.546875 127.570312 L 311.207031 128.832031 L 297.394531 126.484375 C 289.792969 125.191406 283.59375 124.089844 283.609375 124.03125 C 283.625 123.972656 285.628906 123.246094 288.0625 122.421875 C 301.863281 117.730469 318.15625 113.53125 333.464844 110.714844 C 341.019531 109.328125 351.910156 107.613281 352.75 107.679688 C 353.011719 107.699219 348.371094 110.039062 342.4375 112.878906 Z M 341.550781 116.4375 C 339.070312 118.027344 336.566406 119.710938 335.980469 120.171875 C 335.394531 120.636719 333.730469 121.726562 332.285156 122.59375 C 330.839844 123.464844 327.585938 125.5 325.046875 127.117188 C 322.511719 128.734375 320.292969 130.125 320.113281 130.195312 C 319.933594 130.273438 318.867188 130.152344 317.746094 129.929688 C 315.847656 129.550781 315.746094 129.488281 316.320312 129.058594 C 318.308594 127.550781 330.132812 121.257812 339.457031 116.738281 L 346.054688 113.542969 Z M 324.265625 130.816406 C 324.179688 130.621094 332.09375 125.316406 332.335938 125.402344 C 332.375 125.421875 334.019531 127.230469 335.980469 129.429688 C 337.945312 131.625 339.535156 133.46875 339.515625 133.527344 C 339.441406 133.726562 324.371094 131.042969 324.265625 130.816406 Z M 344.3125 139.617188 C 345.269531 140.6875 345.226562 140.886719 344.03125 140.941406 C 343.753906 140.957031 339.269531 141.578125 334.0625 142.324219 L 324.597656 143.679688 L 321.480469 139.832031 C 319.765625 137.714844 318.171875 135.738281 317.9375 135.433594 C 317.5625 134.945312 317.652344 134.792969 318.710938 134.101562 C 319.371094 133.667969 320.042969 133.308594 320.207031 133.300781 C 320.371094 133.292969 325.210938 134.066406 330.957031 135.011719 C 342.265625 136.878906 341.679688 136.679688 344.3125 139.617188 Z M 348.035156 144.683594 C 350.945312 148.863281 353.890625 153.640625 356.601562 158.601562 C 357.835938 160.863281 359.753906 164.796875 360.863281 167.339844 L 362.878906 171.960938 L 351.25 171.101562 L 339.621094 170.246094 L 337.199219 164.964844 C 334.367188 158.789062 332.253906 155.007812 328.421875 149.269531 C 326.894531 146.984375 325.679688 145.019531 325.71875 144.90625 C 325.761719 144.792969 330.3125 144 335.835938 143.144531 L 345.871094 141.585938 Z M 363.636719 173.992188 C 365.746094 178.589844 368.929688 190.824219 369.933594 198.1875 C 371.488281 209.550781 370.949219 221.804688 368.449219 232.078125 L 368.445312 232.078125 C 368.035156 233.777344 367.496094 235.855469 367.25 236.695312 L 366.808594 238.222656 L 363.007812 236.238281 C 360.917969 235.148438 356.445312 232.820312 353.070312 231.0625 C 349.699219 229.308594 345.882812 227.316406 344.597656 226.640625 L 342.261719 225.40625 L 343.023438 222.925781 C 347.582031 208.136719 346.914062 191.15625 341.121094 174.339844 C 340.625 172.90625 340.257812 171.632812 340.304688 171.511719 C 340.351562 171.386719 344.5 171.558594 349.527344 171.890625 C 354.550781 172.222656 359.644531 172.53125 360.84375 172.570312 L 363.023438 172.648438 Z M 360.734375 252.558594 C 358.421875 256.847656 355.457031 261.371094 352.507812 265.121094 C 351.238281 266.738281 350.066406 268.121094 349.910156 268.195312 C 349.75 268.265625 349.398438 268.082031 349.128906 267.78125 C 348.859375 267.476562 343.863281 263.335938 338.027344 258.574219 C 332.1875 253.8125 327.4375 249.878906 327.464844 249.839844 C 327.492188 249.796875 328.285156 248.90625 329.21875 247.859375 C 333.324219 243.261719 337.121094 237.304688 340.101562 230.78125 L 342.042969 226.519531 L 343.554688 227.28125 C 344.386719 227.703125 348.785156 229.957031 353.332031 232.292969 C 357.878906 234.632812 362.636719 237.039062 363.90625 237.644531 C 365.175781 238.25 366.261719 238.863281 366.328125 239.003906 C 366.554688 239.496094 362.550781 249.207031 360.734375 252.558594 Z M 363.828125 255.675781 C 360.308594 267.894531 355.714844 279.914062 350.996094 289.238281 C 349.976562 291.257812 349.042969 292.949219 348.921875 293.003906 C 348.710938 293.101562 342.445312 281.613281 342.566406 281.351562 C 342.597656 281.28125 343.9375 279.984375 345.546875 278.46875 C 351.695312 272.667969 357.285156 265.8125 361.421875 259.003906 C 364.042969 254.6875 364.15625 254.527344 363.828125 255.675781 Z M 340.054688 277.066406 C 339.746094 276.605469 337.742188 273.09375 335.589844 269.265625 C 333.441406 265.441406 330.332031 259.996094 328.675781 257.167969 C 325.890625 252.402344 325.691406 251.988281 325.972656 251.460938 C 326.140625 251.148438 326.347656 250.859375 326.441406 250.828125 C 326.570312 250.777344 348.375 268.179688 349.082031 268.898438 C 349.1875 269.003906 348.363281 270.074219 347.257812 271.28125 C 346.148438 272.480469 344.199219 274.46875 342.929688 275.6875 L 340.617188 277.910156 Z M 358.203125 317.316406 C 358.296875 317.699219 358.082031 317.367188 357.726562 316.589844 C 357.371094 315.808594 357.296875 315.496094 357.558594 315.898438 L 357.5625 315.894531 C 357.820312 316.300781 358.113281 316.9375 358.203125 317.316406 Z M 354.265625 310.925781 C 335.058594 278.660156 300.4375 232.121094 274.828125 204.140625 C 267.824219 196.488281 259.699219 188.363281 257.925781 187.238281 C 257.003906 186.65625 257.191406 186.308594 259.089844 185.132812 C 262.035156 183.296875 266.199219 179.109375 267.773438 176.402344 C 268.472656 175.199219 268.410156 175.15625 272.292969 179.398438 C 283.390625 191.511719 300.164062 215.363281 316.003906 241.53125 C 318.375 245.445312 320.910156 249.613281 321.632812 250.789062 C 324 254.617188 330.769531 266.300781 334.675781 273.289062 C 342.53125 287.351562 344.808594 291.554688 352.898438 306.964844 C 356.921875 314.628906 357.546875 316.4375 354.265625 310.925781 Z M 359.207031 322.449219 C 359.179688 322.519531 358.449219 321.640625 357.582031 320.492188 C 354.269531 316.097656 345.078125 304.421875 343.457031 302.542969 C 342.523438 301.460938 339.359375 297.738281 336.425781 294.269531 C 329.226562 285.75 322.6875 278.4375 312.714844 267.773438 C 286.167969 239.378906 254.867188 210.808594 231.652344 193.785156 C 229.988281 192.566406 228.621094 191.550781 228.609375 191.527344 C 228.601562 191.507812 230.566406 191.546875 232.980469 191.621094 C 240.238281 191.839844 246.753906 190.765625 252.933594 188.328125 L 256.324219 186.988281 L 258.035156 188.472656 C 263.046875 192.820312 275.429688 206.300781 285.820312 218.722656 C 312.082031 250.132812 339.722656 288.828125 356.75 318.019531 C 358.128906 320.382812 359.234375 322.375 359.207031 322.449219 Z M 361.167969 330.472656 C 361.140625 330.550781 356.644531 326.378906 351.179688 321.203125 C 345.714844 316.027344 337.390625 308.152344 332.679688 303.707031 C 327.96875 299.261719 323.714844 295.1875 323.230469 294.660156 C 322.742188 294.125 321.640625 293.085938 320.785156 292.351562 C 319.925781 291.609375 315.210938 287.210938 310.308594 282.570312 C 305.402344 277.929688 298.253906 271.167969 294.425781 267.546875 C 287.132812 260.648438 238.792969 215.214844 228.457031 205.542969 C 225.164062 202.460938 222.496094 199.890625 222.53125 199.832031 C 223.792969 197.738281 225.570312 194.503906 225.910156 193.6875 C 226.152344 193.09375 226.429688 192.640625 226.523438 192.679688 C 227.023438 192.882812 246.761719 208.9375 251.324219 212.851562 C 260.984375 221.132812 272.695312 231.851562 282.90625 241.753906 C 291.503906 250.09375 302.65625 261.417969 303.730469 262.902344 C 303.972656 263.238281 304.5 263.769531 304.894531 264.082031 C 306.421875 265.285156 318.875 278.96875 328.058594 289.527344 C 328.9375 290.539062 331.105469 293.023438 332.875 295.042969 C 338.070312 300.976562 349.777344 315.410156 356.476562 324.144531 L 356.480469 324.144531 C 359.085938 327.542969 361.195312 330.390625 361.167969 330.472656 Z M 336.484375 312.226562 C 333.476562 316.066406 328.007812 321.316406 323.675781 324.515625 C 321.507812 326.113281 319.914062 326.96875 313.085938 330.1875 C 308.660156 332.269531 304.632812 334.09375 304.136719 334.238281 C 303.632812 334.378906 300.84375 335.203125 297.9375 336.066406 C 281.738281 340.867188 265.414062 343.609375 247.921875 344.460938 C 240.457031 344.824219 223.027344 344.21875 214.800781 343.308594 C 184.6875 339.96875 156.042969 331.539062 129.355469 318.15625 C 96.960938 301.90625 69.945312 280.402344 48.941406 254.140625 C 44.714844 248.855469 38.089844 239.652344 38.230469 239.269531 C 38.316406 239.046875 64.636719 231.855469 66.523438 231.539062 C 66.890625 231.476562 67.886719 232.507812 70.007812 235.144531 C 73.953125 240.050781 82.5625 249.246094 87.476562 253.804688 C 92.765625 258.710938 103.820312 267.625 109.859375 271.855469 C 151.566406 301.054688 204.316406 316.4375 253.699219 313.796875 C 264.03125 313.246094 272.378906 312.144531 282.074219 310.058594 C 293.207031 307.65625 300.589844 305.242188 312.183594 300.195312 L 321.316406 296.222656 L 329.300781 303.710938 L 337.28125 311.203125 Z M 24.480469 240.339844 C 28.34375 238.367188 86.90625 218.640625 104.488281 213.394531 C 106.230469 212.875 108.996094 212.007812 110.636719 211.464844 C 115.097656 209.996094 136.679688 203.402344 147.660156 200.152344 C 164.136719 195.277344 179.328125 191.035156 199.742188 185.613281 C 200.285156 185.46875 200.777344 185.441406 200.824219 185.550781 C 200.875 185.660156 200.167969 187.402344 199.253906 189.421875 C 198.339844 191.441406 197.492188 193.210938 197.371094 193.359375 C 197.25 193.507812 194.191406 194.40625 190.570312 195.363281 C 175.738281 199.269531 70.785156 227.75 46.851562 234.359375 C 28.824219 239.339844 23.816406 240.679688 24.480469 240.339844 Z M 13.542969 241.402344 L 16.242188 239.746094 C 23.957031 235.011719 39.042969 226.804688 54.386719 218.988281 C 65.152344 213.507812 104.371094 195.535156 116.339844 190.597656 C 140.972656 180.4375 161.003906 172.847656 176.828125 167.683594 L 181.152344 166.273438 L 183.074219 168.480469 C 187.128906 173.132812 191.921875 177.238281 196.992188 180.402344 C 198.648438 181.4375 199.988281 182.324219 199.964844 182.371094 C 199.941406 182.414062 196.414062 183.386719 192.125 184.53125 C 158.9375 193.371094 100.636719 211.019531 66.792969 222.472656 C 64.421875 223.273438 60.070312 224.726562 57.125 225.707031 C 46.28125 229.300781 27.550781 236.007812 17.039062 240.054688 Z M 21.898438 234.742188 C 22.054688 234.578125 22.375 234.429688 22.605469 234.417969 C 22.835938 234.410156 22.707031 234.546875 22.316406 234.726562 C 21.925781 234.902344 21.738281 234.914062 21.898438 234.742188 Z M 46.167969 219.394531 C 50.953125 216.457031 55.832031 213.453125 57.003906 212.722656 C 60.84375 210.335938 79.820312 199.21875 85.269531 196.167969 C 88.199219 194.527344 91.8125 192.472656 93.296875 191.597656 C 108.832031 182.472656 154.863281 158.261719 169.199219 151.683594 L 173.324219 149.792969 L 174.074219 152.449219 C 174.859375 155.226562 178.015625 161.84375 179.582031 163.992188 L 179.578125 163.992188 C 180.257812 164.921875 180.304688 165.109375 179.898438 165.257812 C 179.636719 165.351562 177.878906 165.929688 175.992188 166.542969 C 131.785156 180.910156 69.074219 208.355469 29.007812 230.875 C 26.179688 232.464844 23.789062 233.738281 23.695312 233.703125 C 23.460938 233.617188 35.59375 225.890625 46.167969 219.394531 Z M 27.03125 214.070312 C 26.433594 210.757812 26.449219 208.113281 27.089844 201.949219 C 28.457031 188.871094 32.71875 170.597656 38.789062 151.753906 L 39.371094 149.941406 L 39.304688 154.6875 C 39.136719 166.316406 40.65625 176.507812 44.378906 188.652344 C 45.640625 192.78125 46.550781 195.050781 49.804688 202.195312 C 51.957031 206.917969 53.710938 210.785156 53.703125 210.789062 C 53.261719 211.015625 38.03125 220.597656 35.566406 222.195312 C 31.164062 225.054688 31.0625 225.097656 30.550781 224.472656 C 29.742188 223.480469 27.570312 217.0625 27.03125 214.070312 Z M 87.210938 183.90625 L 88.21875 186.546875 C 88.769531 188.003906 89.246094 189.375 89.273438 189.597656 C 89.304688 189.828125 88.863281 190.21875 88.257812 190.496094 C 86.972656 191.089844 72.820312 199.285156 64.1875 204.4375 C 60.777344 206.472656 57.683594 208.347656 57.304688 208.605469 C 56.925781 208.867188 56.5 209.035156 56.359375 208.980469 C 55.648438 208.71875 48.136719 191.070312 48.414062 190.320312 C 48.464844 190.195312 57.210938 188.699219 67.855469 186.996094 Z M 42.996094 149.453125 L 44.492188 149.601562 C 45.3125 149.683594 53.296875 150.371094 62.230469 151.132812 C 71.164062 151.890625 79.144531 152.578125 79.96875 152.660156 L 81.46875 152.808594 L 81.472656 155.109375 C 81.488281 161.535156 82.847656 170.25 84.882812 176.945312 C 85.511719 179.015625 86.15625 181.152344 86.3125 181.691406 C 86.472656 182.230469 86.507812 182.703125 86.390625 182.738281 C 86.273438 182.773438 77.578125 184.25 67.066406 186.015625 L 47.957031 189.226562 L 47.53125 188.054688 C 46.8125 186.082031 45.027344 178.792969 44.320312 174.949219 C 42.96875 167.617188 42.347656 158.199219 42.804688 152.042969 Z M 45.195312 136.15625 C 49.636719 118.820312 58.621094 103.890625 72.148438 91.363281 C 73.242188 90.351562 74.269531 89.515625 74.429688 89.503906 C 74.59375 89.488281 78.753906 91.570312 83.683594 94.125 C 88.609375 96.679688 94.792969 99.859375 97.421875 101.1875 C 100.050781 102.519531 102.242188 103.695312 102.292969 103.800781 C 102.339844 103.902344 101.875 104.492188 101.261719 105.105469 C 100.644531 105.71875 98.851562 107.785156 97.277344 109.703125 C 88.082031 120.882812 82.449219 134.96875 81.6875 148.675781 C 81.617188 149.960938 81.425781 151.0625 81.265625 151.121094 C 81.105469 151.179688 79.925781 151.132812 78.644531 151.015625 C 77.363281 150.898438 68.90625 150.21875 59.851562 149.5 C 50.796875 148.785156 43.316406 148.046875 43.234375 147.859375 C 43.023438 147.40625 44.375 139.371094 45.195312 136.15625 Z M 84.121094 81.929688 C 88.003906 79.277344 94 75.78125 99.269531 73.089844 L 103.363281 70.996094 L 113.945312 79.511719 L 124.527344 88.019531 L 121.894531 89.476562 C 120.449219 90.273438 118.191406 91.609375 116.882812 92.441406 L 114.5 93.953125 L 106.777344 93.957031 C 102.53125 93.960938 98.976562 94.078125 98.882812 94.222656 C 98.464844 94.847656 99.269531 95.324219 102.335938 96.273438 C 104.136719 96.828125 106.304688 97.503906 107.152344 97.777344 L 108.695312 98.273438 L 103.585938 102.710938 L 95.335938 98.582031 C 90.800781 96.308594 84.496094 93.171875 81.324219 91.609375 C 78.15625 90.046875 75.578125 88.65625 75.59375 88.519531 C 75.636719 88.160156 80.539062 84.371094 84.121094 81.929688 Z M 121.632812 64.546875 C 121.707031 64.574219 124.546875 68.890625 127.945312 74.148438 L 134.128906 83.699219 L 130.101562 85.542969 C 127.21875 86.867188 125.949219 87.324219 125.636719 87.164062 C 125.011719 86.84375 105.128906 71.0625 105.003906 70.792969 C 104.789062 70.316406 120.875 64.277344 121.632812 64.546875 Z M 106.761719 37.9375 C 105.636719 36.292969 104.742188 34.882812 104.773438 34.808594 C 104.84375 34.617188 112.457031 42.433594 116.726562 47.074219 C 129.222656 60.667969 143.792969 79.484375 154.660156 96.074219 C 156.5625 98.980469 158.339844 101.675781 158.613281 102.070312 C 158.882812 102.464844 159.007812 102.820312 158.890625 102.863281 C 158.648438 102.953125 151.472656 101.769531 149.472656 101.316406 C 148.214844 101.027344 148.070312 100.890625 146.589844 98.523438 C 145.730469 97.152344 144.28125 94.90625 143.367188 93.53125 C 142.457031 92.15625 137.828125 85.070312 133.082031 77.78125 C 128.335938 70.492188 124.042969 63.992188 123.546875 63.335938 C 123.046875 62.679688 122.25 61.464844 121.773438 60.640625 C 120.933594 59.183594 110.875 43.96875 106.761719 37.9375 Z M 105.761719 32.15625 C 107.550781 33.070312 114.851562 37.941406 119.007812 40.992188 C 139.980469 56.382812 164.898438 80.503906 182.480469 102.4375 C 184.476562 104.925781 186.117188 107.078125 186.125 107.214844 C 186.132812 107.355469 180.871094 106.585938 174.433594 105.503906 C 166.515625 104.179688 162.570312 103.367188 162.234375 102.992188 C 161.964844 102.6875 160.085938 99.875 158.066406 96.746094 C 144.296875 75.398438 124.898438 51.109375 110.328125 36.96875 C 104.398438 31.222656 104.835938 31.679688 105.761719 32.15625 Z M 118.882812 38.027344 C 126.078125 42.359375 133.09375 47.046875 143.398438 54.40625 C 144.125 54.925781 145.765625 56.179688 147.046875 57.195312 C 148.328125 58.210938 150.066406 59.496094 150.914062 60.054688 C 153.382812 61.679688 170.515625 75.449219 176.601562 80.703125 C 188.089844 90.617188 197.3125 99.234375 206.097656 108.269531 C 207.652344 109.867188 208.828125 111.210938 208.710938 111.253906 C 208.59375 111.296875 204.054688 110.558594 198.621094 109.613281 L 188.75 107.898438 L 183.910156 101.882812 C 163.277344 76.234375 133.6875 48.601562 111.664062 34.410156 C 109.554688 33.050781 107.867188 31.921875 107.917969 31.898438 C 108.101562 31.8125 114.535156 35.40625 118.882812 38.027344 Z M 158.148438 58.136719 C 158.214844 58.144531 159.082031 59.433594 160.082031 61 C 161.078125 62.5625 161.9375 64.03125 161.984375 64.261719 C 162.050781 64.578125 155.472656 59.699219 154.390625 58.628906 C 154.246094 58.484375 157.617188 58.039062 158.148438 58.136719 Z M 159.84375 58.554688 C 159.710938 58.0625 160.351562 57.976562 165.265625 57.804688 C 171.625 57.585938 182.113281 57.816406 188.144531 58.308594 C 195.179688 58.886719 198.882812 59.328125 199.019531 59.605469 C 199.089844 59.75 199.738281 63.585938 200.457031 68.125 C 201.179688 72.660156 201.695312 76.398438 201.605469 76.429688 C 201.519531 76.460938 199.824219 76.3125 197.839844 76.101562 C 193.425781 75.628906 184.4375 75.316406 179.199219 75.453125 L 175.3125 75.554688 L 165.039062 66.960938 L 162.515625 63.039062 C 161.128906 60.882812 159.925781 58.863281 159.84375 58.554688 Z M 216.324219 62.359375 C 230.195312 65.292969 244.375 69.628906 256.691406 74.703125 C 264.007812 77.71875 269.28125 80.066406 269.175781 80.261719 C 269.136719 80.328125 267.101562 83.183594 264.652344 86.605469 C 262.203125 90.023438 260.160156 92.839844 260.109375 92.863281 C 260.0625 92.886719 258.082031 92.054688 255.710938 91.019531 C 241.558594 84.835938 224.488281 79.90625 208.65625 77.429688 C 205.757812 76.976562 203.355469 76.53125 203.3125 76.441406 C 203.191406 76.171875 200.1875 59.785156 200.234375 59.648438 C 200.308594 59.453125 211.5 61.335938 216.324219 62.359375 Z M 281.933594 86.730469 C 290.457031 91.421875 304.140625 100.292969 303.855469 100.9375 C 303.777344 101.113281 301.484375 102.839844 298.757812 104.777344 C 296.03125 106.714844 293.753906 108.308594 293.691406 108.320312 C 289.257812 109.097656 288.460938 109.117188 287.433594 108.449219 C 278.148438 102.429688 271.601562 98.613281 264.691406 95.175781 L 261.226562 93.457031 L 265.628906 87.113281 C 268.050781 83.625 270.089844 80.742188 270.167969 80.707031 C 270.363281 80.617188 277.109375 84.070312 281.933594 86.730469 Z M 305.71875 101.941406 C 306.070312 102.179688 307.355469 103.128906 308.574219 104.050781 L 308.574219 104.046875 C 309.792969 104.96875 310.761719 105.773438 310.730469 105.832031 C 310.601562 106.054688 296.941406 107.742188 297.023438 107.527344 C 297.066406 107.402344 298.894531 106 301.089844 104.40625 L 305.078125 101.511719 Z M 306.15625 131.71875 C 298.878906 135.601562 283.058594 145.226562 275.902344 150.128906 C 273.40625 151.835938 271.25 153.285156 271.109375 153.351562 C 270.964844 153.417969 270.789062 153.082031 270.710938 152.59375 C 270.628906 152.109375 269.707031 149.867188 268.664062 147.609375 C 266.640625 143.242188 264.730469 140.257812 261.757812 136.8125 L 260.019531 134.796875 L 261.503906 133.859375 C 262.320312 133.34375 266.324219 131.382812 270.398438 129.507812 L 277.808594 126.09375 L 281.097656 126.652344 C 282.90625 126.957031 289.558594 128.078125 295.882812 129.140625 L 307.371094 131.070312 Z M 314.664062 133.855469 C 312.582031 135.085938 288.410156 150.941406 282.214844 155.140625 C 279.671875 156.863281 277.410156 158.355469 277.191406 158.457031 C 276.972656 158.554688 276.238281 158.417969 275.5625 158.148438 C 274.882812 157.878906 273.796875 157.59375 273.148438 157.511719 C 271.980469 157.367188 271.335938 156.667969 271.46875 155.699219 C 271.589844 154.8125 286.792969 145.523438 302.566406 136.695312 L 311.386719 131.757812 L 313.769531 132.148438 C 315.074219 132.363281 316.183594 132.617188 316.230469 132.710938 C 316.28125 132.800781 315.574219 133.316406 314.664062 133.855469 Z M 327.03125 243.917969 C 329.535156 240.375 332.210938 235.191406 333.9375 230.542969 C 338.875 217.253906 339.019531 202.757812 334.382812 186.707031 C 333.132812 182.390625 327.261719 169.371094 324.671875 165.171875 C 320.164062 157.875 314.835938 150.785156 309.539062 145.027344 C 308.019531 143.378906 306.835938 141.894531 306.90625 141.734375 C 307.082031 141.339844 314.089844 136.976562 314.375 137.085938 C 314.820312 137.25 320.679688 144.589844 323.023438 147.914062 C 328.171875 155.21875 329.429688 157.425781 333.558594 166.414062 C 337.761719 175.5625 338.753906 178.394531 340.34375 185.777344 C 344.511719 205.125 341.207031 223.777344 330.832031 239.441406 C 329.480469 241.480469 325.527344 246.546875 325.4375 246.351562 C 325.410156 246.292969 326.128906 245.199219 327.03125 243.917969 Z M 280.113281 181.601562 C 285.761719 181.96875 290.742188 182.09375 291.207031 181.878906 C 292.1875 181.429688 292.125 177.15625 291.085938 173.484375 C 289.722656 168.644531 285.257812 163.203125 280.328125 160.363281 C 279.460938 159.863281 278.730469 159.402344 278.699219 159.339844 C 278.671875 159.277344 279.40625 158.773438 280.332031 158.222656 C 281.257812 157.667969 287.011719 154.085938 293.125 150.265625 C 299.234375 146.445312 304.429688 143.226562 304.667969 143.117188 C 305.382812 142.789062 312.644531 150.972656 317.207031 157.253906 C 324.761719 167.660156 330.761719 179.9375 333.507812 190.625 C 335.945312 200.113281 336.46875 208.910156 335.121094 217.8125 C 333.726562 227.019531 330.347656 235.527344 325.101562 243.050781 C 322.472656 246.816406 322.605469 246.722656 321.753906 245.359375 C 321.355469 244.722656 318.621094 240.300781 315.679688 235.535156 C 302.039062 213.441406 288.839844 194.648438 279.335938 183.800781 L 277.246094 181.414062 Z M 270.824219 174.042969 C 276.054688 174.957031 283.585938 177.382812 286.144531 178.976562 C 287.394531 179.753906 287.871094 180.378906 286.976562 180.070312 C 286.765625 179.996094 284.027344 179.78125 280.882812 179.585938 L 275.164062 179.230469 L 273.460938 177.550781 C 272.527344 176.625 271.175781 175.390625 270.449219 174.808594 L 269.136719 173.75 Z M 237.175781 123.453125 L 237.175781 123.449219 C 236.191406 125.910156 236.089844 126.007812 234.371094 126.167969 C 232.816406 126.3125 231.550781 125.542969 230.800781 123.992188 C 230.140625 122.628906 230.113281 122.738281 231.859375 119.796875 L 232.625 118.511719 L 233.671875 118.710938 C 235.722656 119.101562 236.949219 117.796875 235.898438 116.347656 C 235.4375 115.710938 235.449219 115.539062 235.980469 115.160156 C 238.246094 113.546875 239.007812 118.84375 237.175781 123.453125 Z M 233.9375 128.140625 C 235.777344 128.179688 238.089844 127.21875 238.507812 126.25 C 238.769531 125.640625 238.914062 125.675781 240.320312 126.703125 C 247.597656 132.011719 252.75 141.09375 254.246094 151.261719 C 254.800781 154.996094 254.75 157.296875 254.074219 159.1875 C 253.421875 161.015625 250.984375 164.085938 248.871094 165.746094 C 247.222656 167.039062 244.039062 168.84375 242.609375 169.292969 C 233.535156 172.152344 224.523438 172.003906 215.960938 168.855469 C 205.632812 165.058594 198.179688 158.789062 194.53125 150.847656 C 191.0625 143.292969 191.667969 137.398438 196.445312 132.214844 C 198.851562 129.605469 202.667969 126.757812 206.421875 124.777344 C 212.539062 121.546875 220.21875 120.183594 226.945312 121.140625 L 228.675781 121.382812 L 228.539062 122.539062 C 228.210938 125.308594 230.875 128.074219 233.9375 128.140625 Z M 228.441406 105.257812 L 229.105469 106.203125 C 230.035156 107.519531 232.378906 112.738281 232.558594 113.898438 C 232.640625 114.425781 232.535156 114.96875 232.328125 115.105469 C 231.785156 115.457031 227.601562 114.640625 227.578125 114.175781 C 227.566406 113.960938 227.753906 111.867188 228 109.523438 Z M 227.09375 109.710938 C 226.8125 112.007812 226.535156 114 226.476562 114.136719 C 226.351562 114.414062 220.316406 113.476562 220.152344 113.15625 C 220.011719 112.886719 223.808594 108.34375 225.386719 106.890625 C 227.546875 104.902344 227.65625 105.085938 227.09375 109.710938 Z M 287.949219 176.648438 C 288.007812 176.9375 287.105469 176.660156 285.535156 175.910156 C 281.476562 173.96875 274.945312 172.203125 271.199219 172.035156 L 270.03125 171.984375 L 270.746094 169.875 C 271.140625 168.71875 271.574219 167.0625 271.707031 166.199219 C 271.84375 165.335938 272.054688 164.582031 272.175781 164.527344 C 272.296875 164.472656 273.40625 164.746094 274.632812 165.140625 C 278.964844 166.535156 283.152344 169.734375 286.3125 174.074219 C 287.15625 175.234375 287.894531 176.390625 287.949219 176.648438 Z M 274.105469 163.898438 L 272.113281 163.433594 L 271.910156 159.121094 L 274.652344 160.234375 C 279.597656 162.246094 283.722656 165.976562 286.214844 170.703125 C 287.035156 172.257812 287.652344 173.554688 287.59375 173.582031 C 287.53125 173.609375 286.859375 172.839844 286.09375 171.871094 C 283.304688 168.324219 278.023438 164.8125 274.105469 163.898438 Z M 269.25 128.859375 C 265.757812 130.574219 262.113281 132.453125 261.144531 133.03125 L 259.390625 134.085938 L 257.957031 132.734375 C 254.109375 129.109375 247.855469 124.605469 243.058594 122.011719 L 241.574219 121.207031 L 242.769531 120.902344 C 243.425781 120.734375 244.304688 120.613281 244.722656 120.632812 C 245.140625 120.652344 252.253906 121.808594 260.535156 123.203125 L 275.59375 125.738281 L 269.246094 128.859375 Z M 192.917969 90.25 C 197.796875 90.476562 210.667969 92.699219 218.757812 94.707031 C 235.496094 98.867188 249.414062 104.308594 265.859375 113.128906 C 266.375 113.40625 266.4375 113.382812 263.117188 114.105469 C 261.65625 114.421875 257.496094 115.40625 253.867188 116.296875 L 247.269531 117.914062 L 244.0625 117.390625 L 240.855469 116.863281 L 240.128906 115.277344 C 239.203125 113.253906 238.035156 112.542969 236.257812 112.917969 L 234.996094 113.179688 L 233.121094 109.46875 C 231.410156 106.085938 231.101562 105.640625 229.679688 104.496094 C 228.183594 103.292969 228.0625 103.257812 226.890625 103.695312 C 225.261719 104.304688 220.824219 108.445312 219.101562 110.96875 L 217.792969 112.882812 L 215.570312 112.472656 C 213.464844 112.089844 213.253906 111.96875 211.683594 110.253906 C 206.929688 105.0625 199.488281 97.535156 193.0625 91.421875 L 191.78125 90.199219 Z M 283.160156 110.058594 C 281.460938 110.335938 276.335938 111.308594 273.046875 111.976562 L 268.75 112.851562 L 264.804688 110.714844 C 257.113281 106.542969 249.65625 103.214844 239.832031 99.5625 C 223.789062 93.605469 210.320312 90.363281 194.648438 88.6875 L 189.558594 88.144531 L 185.320312 84.339844 C 182.992188 82.246094 180.613281 80.15625 180.035156 79.695312 C 179.457031 79.234375 179.023438 78.753906 179.070312 78.625 C 179.226562 78.207031 194.484375 78.882812 200.546875 79.574219 C 207.300781 80.339844 215.613281 81.761719 221.542969 83.167969 C 242.375 88.101562 265.785156 98.1875 282.132812 109.273438 C 282.757812 109.695312 283.21875 110.050781 283.160156 110.058594 Z M 191.585938 112.023438 C 191.246094 111.6875 194.441406 112.128906 201.703125 113.410156 C 203.230469 113.679688 204.351562 113.941406 204.199219 113.988281 C 204.046875 114.039062 203.011719 114.210938 201.898438 114.378906 C 200.785156 114.546875 198.695312 114.996094 197.253906 115.378906 C 195.808594 115.765625 194.460938 115.96875 194.257812 115.832031 C 194.050781 115.695312 193.449219 114.863281 192.921875 113.984375 C 192.390625 113.105469 191.789062 112.222656 191.585938 112.023438 Z M 165.140625 107.546875 C 165.113281 107.269531 186.988281 110.777344 188.820312 111.34375 C 189.363281 111.511719 192.261719 115.214844 192.84375 116.476562 C 192.949219 116.714844 192.539062 116.953125 191.421875 117.308594 C 189.417969 117.941406 184.90625 120.636719 182.558594 122.605469 C 181.558594 123.445312 179.902344 125.164062 178.875 126.421875 C 177.847656 127.683594 176.949219 128.789062 176.878906 128.875 C 176.804688 128.960938 175.707031 126.996094 174.4375 124.503906 C 173.167969 122.011719 170.566406 117.25 168.65625 113.921875 C 166.742188 110.59375 165.160156 107.722656 165.140625 107.546875 Z M 164.625 139.871094 C 158.617188 137.625 152.039062 136.710938 146.488281 137.351562 L 144.695312 137.5625 L 147.292969 136.351562 C 152.179688 134.078125 158.226562 133.332031 163.957031 134.296875 C 166.132812 134.664062 170.910156 136.332031 172.152344 137.160156 L 173.128906 137.808594 L 172.472656 143.65625 L 170.617188 142.539062 C 169.597656 141.921875 166.898438 140.722656 164.625 139.871094 Z M 149.445312 144.4375 C 144.808594 142.132812 142.042969 140.585938 142.257812 140.417969 C 142.449219 140.273438 143.710938 139.96875 145.066406 139.75 C 149.554688 139.015625 156.09375 139.710938 162.234375 141.574219 C 164.832031 142.363281 169.546875 144.679688 171.214844 145.984375 L 172.019531 146.613281 L 167.261719 148.785156 L 162.5 150.957031 L 159.742188 149.570312 C 158.226562 148.808594 153.59375 146.5 149.445312 144.4375 Z M 175.132812 132.109375 L 174.292969 134.410156 L 173.449219 136.707031 L 172.484375 136.039062 C 170.863281 134.90625 166.242188 133.375 163.367188 133.007812 C 157.867188 132.3125 151.921875 133.148438 147.027344 135.304688 C 144.210938 136.546875 144.144531 136.5625 144.984375 135.71875 C 146.421875 134.277344 152.207031 131.5 155.070312 130.875 C 160.667969 129.648438 167.734375 129.964844 173.75 131.707031 Z M 174.023438 128.71875 C 173.996094 128.78125 173.199219 128.652344 172.246094 128.433594 C 171.296875 128.210938 169.421875 127.890625 168.085938 127.722656 L 165.652344 127.417969 L 163.640625 124.558594 C 161.015625 120.835938 151.027344 105.449219 150.984375 105.070312 C 150.96875 104.914062 153.296875 105.183594 156.160156 105.675781 L 161.371094 106.570312 L 162.246094 107.960938 C 163.804688 110.433594 169.539062 120.335938 171.835938 124.523438 C 173.066406 126.765625 174.050781 128.652344 174.023438 128.71875 Z M 88.9375 137.808594 C 94.691406 122.613281 104.894531 111.304688 120.796875 102.492188 L 124.949219 100.1875 L 135.886719 102.105469 C 141.902344 103.160156 147.046875 104.136719 147.320312 104.277344 C 147.59375 104.417969 148.171875 105.101562 148.601562 105.800781 C 149.035156 106.496094 152.015625 111.113281 155.230469 116.054688 C 158.441406 121 161.394531 125.554688 161.792969 126.175781 L 162.511719 127.308594 L 160.722656 127.382812 C 156.683594 127.554688 153.589844 128.246094 149.730469 129.832031 C 146.890625 131.003906 145.5625 131.699219 144.269531 132.707031 C 141.058594 135.199219 138.996094 138.53125 139.476562 140.449219 C 139.789062 141.714844 140.425781 142.101562 151.667969 147.882812 C 155.90625 150.0625 159.496094 151.964844 159.640625 152.109375 C 159.832031 152.296875 157.078125 153.789062 149.957031 157.355469 C 133.617188 165.542969 117.558594 174.042969 100.796875 183.382812 C 97.011719 185.488281 93.566406 187.371094 93.140625 187.570312 L 92.363281 187.925781 L 90.972656 184.394531 C 87.332031 175.171875 84.570312 161.511719 84.949219 154.585938 C 85.136719 151.191406 87.269531 142.207031 88.9375 137.808594 Z M 119.558594 99.148438 C 120.710938 99.351562 121.738281 99.574219 121.84375 99.644531 C 121.953125 99.714844 120.820312 100.433594 119.328125 101.238281 C 106.742188 108.035156 95.984375 118.941406 89.980469 130.996094 C 89.21875 132.519531 88.027344 135.449219 87.332031 137.503906 L 86.0625 141.238281 L 86.773438 138.074219 C 88.296875 131.296875 91.082031 124.515625 94.882812 118.328125 C 98.402344 112.601562 105.949219 104.261719 111.121094 100.390625 C 112.589844 99.292969 112.601562 99.289062 113.890625 99.703125 C 116.917969 100.679688 116.835938 100.679688 117.167969 99.679688 L 117.464844 98.78125 Z M 137.371094 93.507812 C 136.457031 93.769531 133.578125 94.800781 130.980469 95.792969 L 126.257812 97.597656 L 122.1875 97.003906 C 119.949219 96.675781 118.039062 96.238281 117.945312 96.035156 C 117.855469 95.832031 118.035156 95.472656 118.351562 95.234375 C 119.96875 94.019531 125.457031 91.105469 130.328125 88.875 C 136.625 85.988281 135.628906 85.886719 138.011719 89.640625 C 138.753906 90.808594 139.527344 91.960938 139.730469 92.195312 C 140.144531 92.675781 140.023438 92.746094 137.371094 93.507812 Z M 144.976562 100.5 C 144.898438 100.671875 130.34375 98.34375 130.242188 98.140625 C 130.195312 98.046875 130.847656 97.714844 131.695312 97.402344 C 134.09375 96.511719 139.0625 94.828125 140.113281 94.550781 L 141.0625 94.300781 L 143.046875 97.339844 L 143.046875 97.34375 C 144.140625 99.011719 145.007812 100.433594 144.976562 100.5 Z M 217.464844 203.015625 C 212.726562 209.769531 208.324219 215.359375 208.660156 214.195312 C 208.8125 213.667969 210.015625 209.730469 211.339844 205.441406 C 212.664062 201.15625 214.3125 195.722656 215.007812 193.375 L 216.273438 189.105469 L 217.476562 189.40625 C 218.140625 189.570312 220.066406 189.964844 221.757812 190.28125 C 223.453125 190.597656 224.871094 190.917969 224.917969 190.992188 C 225.085938 191.28125 220.460938 198.742188 217.464844 203.015625 Z M 202.300781 189.734375 C 202.304688 189.992188 202.402344 192.394531 202.511719 195.082031 C 202.625 197.765625 202.875 201.511719 203.066406 203.40625 C 203.257812 205.296875 203.324219 206.660156 203.214844 206.425781 C 203.105469 206.191406 202.234375 203.507812 201.28125 200.460938 L 199.542969 194.921875 L 200.519531 192.652344 C 201.628906 190.070312 202.285156 188.992188 202.300781 189.734375 Z M 209.726562 207.472656 C 208.558594 211.453125 207.550781 214.730469 207.488281 214.757812 C 207.292969 214.847656 207.230469 214.554688 206.738281 211.207031 C 206.09375 206.839844 205.335938 199.242188 205.113281 194.917969 C 204.867188 190.195312 204.78125 185.121094 204.949219 185.042969 C 205.023438 185.011719 207.386719 185.867188 210.203125 186.949219 L 215.320312 188.914062 L 213.585938 194.578125 C 212.628906 197.691406 210.890625 203.496094 209.722656 207.472656 Z M 283.710938 272.078125 C 277.773438 274.296875 262.664062 276.792969 251.65625 277.375 C 243.078125 277.828125 231.132812 277.253906 221.480469 275.921875 C 200.429688 273.023438 177.738281 265.515625 158.664062 255.144531 C 142.070312 246.121094 127.332031 234.910156 115.9375 222.644531 C 114.363281 220.949219 113.117188 219.445312 113.167969 219.304688 C 113.21875 219.164062 117.835938 217.835938 123.429688 216.347656 C 129.019531 214.859375 147.949219 209.773438 165.496094 205.042969 C 183.042969 200.3125 197.480469 196.46875 197.578125 196.507812 C 197.675781 196.542969 199.316406 201.070312 201.222656 206.566406 C 203.125 212.0625 205.050781 217.238281 205.492188 218.066406 C 206.222656 219.433594 206.386719 219.570312 207.214844 219.492188 C 207.972656 219.421875 208.375 219.101562 209.605469 217.601562 C 211.945312 214.742188 217.320312 207.558594 219.28125 204.671875 L 221.070312 202.03125 L 222 202.882812 C 222.511719 203.351562 225.792969 206.4375 229.296875 209.738281 C 245.910156 225.402344 270.542969 248.609375 280.5625 258.03125 C 286.667969 263.769531 291.691406 268.53125 291.726562 268.609375 C 291.816406 268.808594 287.773438 270.558594 283.710938 272.078125 Z M 281.113281 276.4375 C 281.132812 276.359375 282.6875 275.839844 284.5625 275.285156 C 286.441406 274.734375 289.546875 273.707031 291.46875 273.007812 C 293.386719 272.304688 295.035156 271.761719 295.125 271.796875 C 295.300781 271.859375 318.046875 293.105469 318.125 293.277344 C 318.152344 293.332031 314.875 294.863281 310.851562 296.679688 C 303.234375 300.117188 297.03125 302.535156 296.398438 302.3125 C 296.058594 302.191406 281.03125 276.757812 281.113281 276.4375 Z M 242.1875 299.492188 C 241.183594 293.382812 240.058594 286.640625 239.6875 284.515625 L 239.011719 280.652344 L 241.636719 280.675781 C 248.203125 280.730469 255.273438 280.441406 260.667969 279.902344 C 266.113281 279.351562 277.226562 277.480469 278.535156 276.894531 C 279.929688 276.269531 279.140625 275.066406 291.433594 296.425781 C 293.292969 299.664062 294.882812 302.449219 294.960938 302.613281 C 295.140625 303.007812 295.238281 302.972656 289.320312 304.535156 C 280.179688 306.957031 273.300781 308.234375 263.238281 309.386719 C 257.800781 310.007812 244.765625 310.886719 244.1875 310.671875 C 244.09375 310.632812 243.195312 305.605469 242.1875 299.492188 Z M 148.058594 271.492188 L 156.28125 257.324219 L 157.257812 257.878906 C 166.117188 262.914062 182.835938 269.796875 194.3125 273.140625 C 208.066406 277.144531 224.058594 279.960938 235.433594 280.378906 C 236.738281 280.429688 237.832031 280.523438 237.867188 280.59375 C 237.898438 280.664062 238.816406 286.070312 239.902344 292.609375 C 240.992188 299.144531 242.117188 305.914062 242.402344 307.648438 L 242.921875 310.796875 L 233.679688 310.425781 C 213.773438 309.621094 197.5 306.875 177.3125 300.910156 C 170.785156 298.984375 155.78125 293.414062 149.652344 290.640625 C 143.671875 287.941406 139.679688 285.988281 139.769531 285.804688 C 139.808594 285.730469 143.539062 279.289062 148.058594 271.492188 Z M 90.402344 252.136719 C 90.492188 251.96875 118.910156 231.914062 119.464844 231.628906 C 119.847656 231.429688 121.039062 232.300781 124.632812 235.40625 C 132.816406 242.46875 141.316406 248.597656 150.429688 253.996094 C 153.140625 255.605469 155.300781 257.0625 155.226562 257.238281 C 155.152344 257.414062 151.609375 263.441406 147.355469 270.628906 C 143.101562 277.816406 139.390625 284.097656 139.105469 284.585938 L 138.585938 285.46875 L 133.011719 282.4375 C 122.414062 276.667969 111.566406 269.574219 102.394531 262.40625 C 98.140625 259.082031 90.285156 252.355469 90.402344 252.136719 Z M 89.792969 251.050781 C 89.472656 251.335938 88.652344 250.660156 85.574219 247.570312 C 79.160156 241.128906 70.40625 231.1875 70.625 230.59375 C 70.683594 230.4375 108.988281 220.058594 109.160156 220.152344 C 109.183594 220.164062 110.765625 221.855469 112.667969 223.90625 C 114.574219 225.957031 116.796875 228.257812 117.605469 229.015625 C 118.417969 229.777344 119.066406 230.5 119.050781 230.621094 C 119.035156 230.746094 118.101562 231.457031 116.976562 232.207031 C 115.851562 232.953125 109.367188 237.421875 102.5625 242.128906 C 95.757812 246.839844 90.011719 250.855469 89.792969 251.050781 Z M 248.582031 186.453125 C 246.03125 187.261719 241.113281 188.214844 238.324219 188.445312 C 222.371094 189.765625 205.457031 184.304688 192.652344 173.699219 C 183.867188 166.425781 177.589844 156.90625 176.398438 149.066406 C 176.25 148.097656 176.054688 146.953125 175.960938 146.523438 C 175.863281 146.097656 175.816406 144.117188 175.855469 142.121094 C 175.910156 138.882812 176.078125 138.078125 177.40625 134.535156 C 178.644531 131.230469 179.207031 130.1875 180.816406 128.25 C 183.242188 125.316406 185.648438 123.296875 189.0625 121.324219 C 198.816406 115.6875 211.726562 114.765625 227.101562 118.613281 C 227.632812 118.746094 225.984375 118.800781 223.433594 118.730469 C 217.734375 118.574219 214.257812 119.160156 208.882812 121.179688 C 202.738281 123.488281 198.421875 126.238281 194.5 130.339844 C 191.429688 133.554688 189.949219 136.679688 189.492188 140.898438 C 188.871094 146.695312 190.613281 152.078125 194.910156 157.640625 C 200.714844 165.15625 210.027344 170.691406 220.90625 173.097656 C 226.824219 174.410156 232.679688 174.621094 238.003906 173.722656 C 241.535156 173.125 248.601562 170 251.019531 167.964844 C 254.199219 165.289062 256.503906 161.785156 257.125 158.679688 C 257.804688 155.289062 256.800781 148.15625 254.851562 142.488281 C 252.835938 136.640625 248.914062 130.742188 244.488281 126.914062 C 242.15625 124.898438 242.886719 125.160156 246.71875 127.714844 C 252.316406 131.445312 258.070312 136.996094 261.863281 142.320312 C 264.09375 145.457031 267.0625 151.96875 267.8125 155.378906 C 270.023438 165.417969 266.996094 174.605469 259.480469 180.660156 C 257.511719 182.25 251.105469 185.652344 248.582031 186.453125 Z M 326.132812 107.125 C 331.914062 106.632812 349.335938 106.152344 350.339844 106.460938 C 350.96875 106.648438 350.046875 106.863281 346.789062 107.285156 C 341.902344 107.914062 327.226562 110.664062 319.933594 112.316406 C 307.488281 115.140625 296.082031 118.390625 286.183594 121.945312 L 281.25 123.714844 L 266.917969 121.28125 C 259.039062 119.941406 252.617188 118.773438 252.648438 118.6875 C 252.738281 118.449219 268.433594 115.070312 269.140625 115.132812 C 269.472656 115.164062 270.566406 114.960938 271.574219 114.679688 C 273.582031 114.125 282.816406 112.433594 287.910156 111.691406 C 289.679688 111.429688 293.148438 110.910156 295.617188 110.535156 C 302.757812 109.445312 315.09375 108.066406 326.132812 107.125 Z M 359.007812 104.679688 C 350.75 103.574219 337.121094 103.632812 322.335938 104.832031 L 316.21875 105.332031 L 314.707031 104.171875 C 300.402344 93.1875 287.648438 85.273438 272.605469 78.046875 C 242.859375 63.746094 210.980469 55.757812 179.261719 54.652344 C 170.207031 54.339844 163.847656 54.449219 156.285156 55.050781 C 153.734375 55.253906 151.273438 55.398438 150.8125 55.378906 C 150.335938 55.355469 148.855469 54.519531 147.386719 53.433594 C 127.46875 38.773438 106.714844 27.128906 99.925781 26.804688 C 98.960938 26.757812 98.847656 26.8125 98.621094 27.421875 C 98.410156 27.992188 98.515625 28.28125 99.363281 29.410156 C 99.90625 30.140625 102.675781 34.453125 105.519531 39 C 108.359375 43.550781 112.59375 50.253906 114.929688 53.902344 C 117.261719 57.550781 119.289062 60.792969 119.4375 61.113281 C 119.699219 61.679688 119.644531 61.710938 116.78125 62.617188 C 85.457031 72.503906 61.089844 91.804688 48.628906 116.59375 C 45.0625 123.6875 38.097656 141.90625 34.496094 153.5625 C 27.429688 176.417969 23.476562 197.773438 23.902344 210.746094 C 24.070312 215.765625 24.726562 218.980469 26.476562 223.359375 C 27.859375 226.804688 27.921875 227.085938 27.425781 227.464844 C 27.132812 227.6875 25.421875 228.863281 23.617188 230.078125 C 14.546875 236.183594 2.148438 245.28125 0.585938 246.972656 C 0.171875 247.425781 -0.0820312 247.984375 0.0234375 248.21875 C 0.320312 248.859375 1.765625 249 2.867188 248.496094 C 3.71875 248.105469 14.699219 245.125 29.589844 241.242188 C 35.738281 239.636719 35.222656 239.675781 35.730469 240.789062 C 36.378906 242.203125 40.953125 248.847656 44.441406 253.4375 C 65.789062 281.554688 96.582031 306.109375 131.472656 322.84375 C 154.675781 333.96875 178.226562 341.359375 203.015625 345.289062 C 223.667969 348.5625 242.050781 349.058594 262.070312 346.890625 C 279.910156 344.953125 293.074219 341.492188 310.449219 334.167969 C 322.855469 328.941406 329.597656 324.28125 336.988281 315.820312 C 338.273438 314.351562 339.371094 313.175781 339.429688 313.207031 C 339.488281 313.234375 344.058594 317.5 349.589844 322.679688 C 355.121094 327.859375 361.484375 333.78125 363.734375 335.835938 C 365.980469 337.890625 368.488281 340.457031 369.300781 341.535156 C 370.117188 342.617188 371.121094 343.625 371.53125 343.777344 C 371.941406 343.933594 372.523438 343.941406 372.828125 343.800781 C 373.714844 343.398438 373.234375 341.703125 370.910156 337.015625 C 369.753906 334.683594 366.457031 327.988281 363.589844 322.136719 C 358.417969 311.59375 353.421875 301.773438 351.484375 298.335938 L 350.480469 296.558594 L 352.347656 292.929688 C 359.132812 279.746094 365.992188 260.546875 369.679688 244.414062 C 370.527344 240.707031 371.589844 236.265625 372.042969 234.546875 C 378.414062 210.304688 374.390625 183.210938 360.644531 157.769531 C 357.800781 152.5 354.171875 146.628906 350.828125 141.878906 C 349.476562 139.960938 348.386719 138.351562 348.40625 138.296875 C 348.425781 138.246094 349.941406 139.320312 351.773438 140.683594 C 356.519531 144.214844 357.457031 144.796875 357.640625 144.308594 C 357.742188 144.027344 356.824219 143.019531 354.867188 141.25 C 353.257812 139.796875 352 138.582031 352.070312 138.546875 C 352.144531 138.515625 352.777344 138.582031 353.480469 138.699219 C 354.277344 138.835938 356.226562 139.882812 358.707031 141.503906 C 363.84375 144.867188 365.476562 145.785156 365.9375 145.574219 C 366.652344 145.246094 365.875 144.449219 361.667969 141.179688 L 357.457031 137.90625 L 358.882812 137.53125 C 359.667969 137.324219 361.414062 136.878906 362.769531 136.539062 C 365.527344 135.847656 367.535156 135.042969 367.140625 134.777344 C 366.796875 134.550781 363.652344 134.910156 358.992188 135.710938 C 355.90625 136.246094 352.539062 136.300781 352.320312 135.820312 C 352.296875 135.765625 353.90625 135.074219 355.898438 134.277344 C 359.066406 133.019531 359.503906 132.777344 359.328125 132.394531 C 359.109375 131.917969 356.332031 132.523438 350.902344 134.230469 C 347.851562 135.1875 345.535156 135.164062 345.050781 134.171875 C 345.003906 134.074219 346.714844 133.214844 348.851562 132.257812 C 351.613281 131.023438 352.730469 130.410156 352.703125 130.132812 C 352.660156 129.703125 351.738281 129.953125 347.046875 131.6875 L 344.011719 132.804688 L 340.828125 129.117188 C 339.082031 127.089844 337.1875 124.960938 336.628906 124.386719 C 336.070312 123.808594 335.632812 123.292969 335.65625 123.234375 C 335.679688 123.175781 341.3125 119.472656 348.175781 115 C 355.039062 110.53125 360.75 106.730469 360.859375 106.5625 C 361.359375 105.816406 360.429688 104.875 359.007812 104.679688 " fill-opacity="1" fill-rule="nonzero"/></g><path fill="#ffffff" d="M 203.457031 299.757812 C 201.972656 300.390625 200.6875 300.195312 199.445312 299.144531 C 198.160156 298.058594 197.421875 298.351562 198.148438 299.664062 C 198.859375 300.941406 200.023438 301.558594 201.886719 301.636719 C 204.101562 301.730469 205.792969 300.878906 206.964844 299.074219 C 208.894531 296.101562 208.253906 294.195312 204.242188 290.960938 C 201.65625 288.878906 201.433594 288.621094 201.199219 287.460938 C 200.886719 285.898438 201.347656 284.917969 202.867188 283.929688 C 205.730469 282.058594 208.011719 283.011719 208.609375 286.332031 C 208.914062 288.011719 209.246094 288.402344 210.0625 288.027344 C 210.683594 287.742188 210.816406 286.394531 210.394531 284.734375 C 209.757812 282.25 206.640625 280.582031 204.042969 281.328125 C 200.265625 282.417969 197.957031 284.84375 198.371094 287.285156 C 198.707031 289.277344 199.589844 290.445312 202.15625 292.269531 C 203.417969 293.167969 204.753906 294.324219 205.117188 294.839844 C 205.714844 295.683594 205.722656 295.945312 205.199219 297.519531 C 204.691406 299.042969 204.476562 299.320312 203.457031 299.757812 " fill-opacity="1" fill-rule="nonzero"/><path fill="#ffffff" d="M 179.238281 285.925781 C 180.773438 283.714844 182.109375 281.800781 182.203125 281.667969 C 182.300781 281.535156 182.246094 284.710938 182.082031 288.71875 C 181.921875 292.730469 181.902344 296.460938 182.039062 297.011719 C 182.253906 297.871094 182.371094 297.972656 182.867188 297.746094 C 183.359375 297.519531 184.761719 295.136719 190.410156 284.921875 C 191.617188 282.746094 191.539062 282.480469 191.800781 289.609375 C 192.042969 296.054688 192.351562 299.089844 192.816406 299.542969 L 192.816406 299.546875 C 193.910156 300.617188 194.140625 298.910156 194.0625 290.335938 C 193.964844 279.441406 193.691406 277.6875 192.195312 278.375 C 191.542969 278.675781 191.117188 279.4375 186.804688 287.957031 C 185.402344 290.726562 184.195312 293.019531 184.117188 293.054688 C 184.042969 293.089844 184.085938 291.332031 184.214844 289.152344 C 184.710938 280.640625 184.78125 276.929688 184.445312 276.601562 C 183.554688 275.730469 182.46875 277.109375 176.285156 286.960938 C 172.058594 293.691406 171.292969 295.136719 171.84375 295.339844 C 172.300781 295.511719 174.71875 292.433594 179.238281 285.925781 " fill-opacity="1" fill-rule="nonzero"/><path fill="#ffffff" d="M 351.308594 200.621094 C 348.363281 199.96875 348.210938 200.136719 348.253906 204.011719 C 348.304688 208.519531 348.492188 210.15625 348.976562 210.335938 C 349.234375 210.433594 349.425781 210.304688 349.511719 209.980469 C 349.644531 209.484375 349.816406 204.6875 349.75 203.132812 L 349.71875 202.339844 L 351.84375 202.878906 C 353.007812 203.171875 354.777344 203.570312 355.773438 203.757812 C 356.9375 203.980469 357.605469 204.277344 357.644531 204.597656 C 357.679688 204.871094 357.773438 205.910156 357.855469 206.910156 C 358.089844 209.898438 358.84375 209.539062 359.152344 206.292969 L 359.316406 204.542969 L 361.945312 205.078125 C 363.394531 205.371094 364.808594 205.628906 365.097656 205.652344 C 365.523438 205.6875 365.589844 206.355469 365.457031 209.355469 C 365.367188 211.460938 365.457031 213.121094 365.671875 213.261719 C 365.9375 213.441406 366.136719 213.269531 366.398438 212.625 C 366.910156 211.367188 367.304688 205.039062 366.886719 204.761719 C 366.253906 204.339844 356.890625 201.851562 351.308594 200.621094 " fill-opacity="1" fill-rule="nonzero"/><path fill="#ffffff" d="M 360.566406 191.261719 C 359.191406 191.3125 358.503906 192.117188 358.253906 193.984375 C 357.9375 196.339844 356.574219 197.191406 354.320312 196.441406 C 352.75 195.917969 351.644531 194.945312 350.574219 193.132812 L 349.625 191.527344 L 350.398438 191.058594 C 351.023438 190.683594 351.113281 190.453125 350.851562 189.886719 C 350.242188 188.558594 348.226562 189.753906 348.289062 191.40625 C 348.335938 192.761719 350.058594 195.894531 351.300781 196.882812 C 353.183594 198.386719 356.054688 199.164062 357.414062 198.539062 C 358.410156 198.082031 359.621094 196.148438 359.703125 194.878906 C 359.746094 194.230469 359.902344 193.574219 360.050781 193.417969 C 360.859375 192.597656 364.433594 194.441406 365.175781 196.0625 C 365.695312 197.199219 365.539062 197.460938 364.390625 197.390625 C 363.523438 197.335938 363.765625 198.058594 364.734375 198.417969 C 365.09375 198.550781 365.652344 198.539062 365.980469 198.386719 C 368.957031 197.023438 364.464844 191.113281 360.566406 191.261719 " fill-opacity="1" fill-rule="nonzero"/><path fill="#ffffff" d="M 240.875 81.351562 L 240.871094 81.351562 C 242.265625 81.707031 243.640625 81.886719 243.929688 81.753906 C 244.421875 81.53125 244.394531 81.480469 243.46875 80.945312 C 242.925781 80.636719 241.175781 80.03125 239.578125 79.601562 L 236.671875 78.828125 L 237.121094 77.117188 C 237.371094 76.171875 237.597656 75.394531 237.628906 75.378906 C 237.660156 75.363281 238.601562 75.550781 239.726562 75.789062 C 243.152344 76.523438 243.515625 75.65625 240.214844 74.609375 C 239.109375 74.261719 238.144531 73.832031 238.074219 73.660156 C 237.933594 73.332031 238.320312 71.628906 238.558594 71.519531 C 238.632812 71.488281 240.261719 71.898438 242.179688 72.433594 C 245.621094 73.394531 246.546875 73.453125 246.199219 72.695312 C 246.023438 72.316406 237.910156 69.417969 237.519531 69.59375 C 236.964844 69.851562 234.582031 78.796875 234.894531 79.46875 C 235.070312 79.855469 235.582031 80.015625 240.875 81.351562 " fill-opacity="1" fill-rule="nonzero"/><path fill="#ffffff" d="M 221.078125 76.089844 C 221.644531 75.824219 222.503906 72.945312 223.253906 68.824219 C 223.351562 68.277344 223.761719 69.050781 225.480469 73.039062 C 227.035156 76.644531 227.730469 77.996094 228.132812 78.1875 C 228.433594 78.332031 228.84375 78.375 229.046875 78.28125 C 229.707031 77.980469 232.644531 68.578125 232.308594 67.84375 C 231.945312 67.050781 231.054688 68.429688 229.855469 71.644531 L 228.503906 75.257812 L 226.28125 70.40625 C 224.492188 66.503906 223.945312 65.527344 223.488281 65.402344 C 223.039062 65.28125 222.84375 65.382812 222.570312 65.867188 C 221.574219 67.640625 219.816406 75.019531 220.191406 75.839844 C 220.367188 76.226562 220.636719 76.304688 221.078125 76.089844 " fill-opacity="1" fill-rule="nonzero"/><path fill="#ffffff" d="M 62.003906 131.777344 C 65.617188 132.949219 70.355469 134.425781 72.53125 135.058594 C 75.132812 135.8125 76.671875 136.09375 77.019531 135.871094 C 78.210938 135.109375 77.03125 134.410156 72.039062 132.921875 C 69.289062 132.101562 66.070312 131.136719 64.882812 130.777344 L 62.726562 130.128906 L 68.445312 130.257812 C 71.59375 130.332031 75.066406 130.441406 76.164062 130.503906 C 78.304688 130.625 79.074219 130.234375 78.613281 129.261719 C 78.257812 128.519531 57.535156 120.519531 56.816406 120.847656 C 56.550781 120.96875 56.441406 121.28125 56.574219 121.558594 C 56.902344 122.246094 64.203125 125.542969 69.214844 127.269531 L 73.394531 128.707031 L 65.027344 128.414062 C 60.421875 128.253906 56.328125 128.230469 55.929688 128.371094 C 54.21875 128.957031 55.457031 129.652344 62.003906 131.777344 " fill-opacity="1" fill-rule="nonzero"/><path fill="#ffffff" d="M 75.28125 122.410156 C 79.308594 123.148438 80.546875 123.253906 80.730469 122.878906 C 81.195312 121.910156 81.753906 122.332031 70.75 115.371094 C 68.699219 114.074219 67.335938 113.082031 67.71875 113.160156 C 70.121094 113.65625 81.722656 116.703125 82.351562 117.003906 C 83.296875 117.457031 83.65625 117.3125 83.710938 116.460938 C 83.753906 115.730469 81.960938 114.398438 74.394531 109.53125 C 65.519531 103.820312 63.796875 102.902344 64.386719 104.183594 C 64.652344 104.761719 65.359375 105.304688 71.339844 109.503906 C 74.113281 111.449219 76.640625 113.238281 76.957031 113.484375 C 77.621094 113.996094 77.917969 114.0625 73.078125 112.667969 C 67.199219 110.976562 60.707031 109.457031 60.253906 109.664062 C 59.167969 110.164062 60.671875 111.296875 69.585938 116.710938 C 76.089844 120.664062 75.882812 120.523438 75.242188 120.457031 C 74.964844 120.429688 73.792969 120.199219 72.636719 119.945312 C 69.085938 119.164062 59.769531 117.554688 58.527344 117.503906 C 57.140625 117.445312 56.613281 118.117188 57.648438 118.613281 C 58.449219 119 68.613281 121.1875 75.28125 122.410156 " fill-opacity="1" fill-rule="nonzero"/></svg>